# xmcd
# Track frame offsets:
# 150
# 14412
# 25217
# 35165
# 54002
# 67967
# 82160
# 102842
# 113890
# 129385
# 147487
# 161200
# 171525
# 186067
# 196360
# 210902
# 221660
# 230967
# 247092
# 257517
# 267432
# 280835
# 296250
# 308657
# 319530
# 330020
# 346257
#
# Disc length: 4796 seconds
# Revision: 0
# Processed by: cddbd v1.4PL0 Copyright (c) Steve Scherf et al.
# Submitted via: VisiTrax 2.9.5.180 - For more info visit www.synapsa.com
#
DISCID=9012ba1b
DTITLE=Waylon Jennings - The Restless Kid Live At JD's
DYEAR=2000
DGENRE=
TTITLE0=Just to satisfy ou
TTITLE1=I don't care
TTITLE2=Girl from the north country
TTITLE3=The last letter
TTITLE4=Burning memories
TTITLE5=Hi-heel sneakers
TTITLE6=Lorena
TTITLE7=I wonder where you are tonight
TTITLE8=Sloop John B
TTITLE9=Second chance
TTITLE10=You're m one and only
TTITLE11=Kisses sweeter than wine
TTITLE12=Heartaches for a dime
TTITLE13=Excuse me
TTITLE14=Still in town
TTITLE15=Take me home
TTITLE16=The restless kid
TTITLE17=The streets of Laredo
TTITLE18=Pretty paper
TTITLE19=Dream baby
TTITLE20=Alpha and omega
TTITLE21=Candy man
TTITLE22=Memphis Tennessee
TTITLE23=Th' wife
TTITLE24=I'm gonna marry Poll Ann
TTITLE25=Down came the world
TTITLE26=It ain't me babe
EXTD=
EXTT0=
EXTT1=
EXTT2=
EXTT3=
EXTT4=
EXTT5=
EXTT6=
EXTT7=
EXTT8=
EXTT9=
EXTT10=
EXTT11=
EXTT12=
EXTT13=
EXTT14=
EXTT15=
EXTT16=
EXTT17=
EXTT18=
EXTT19=
EXTT20=
EXTT21=
EXTT22=
EXTT23=
EXTT24=
EXTT25=
EXTT26=
PLAYORDER=
